<?xml version="1.0" standalone="no"?>
<!DOCTYPE svg PUBLIC "-//W3C//DTD SVG 20010904//EN"
 "http://www.w3.org/TR/2001/REC-SVG-20010904/DTD/svg10.dtd">
<svg version="1.0" xmlns="http://www.w3.org/2000/svg"
 width="1280.000000pt" height="981.000000pt" viewBox="0 0 1280.000000 981.000000"
 preserveAspectRatio="xMidYMid meet">
<g transform="translate(0.000000,981.000000) scale(0.100000,-0.100000)"
fill="#000000" stroke="none">
<path d="M9738 9804 c-3 -3 -102 -12 -219 -20 l-213 -15 -249 -132 -249 -132
-34 -94 c-19 -51 -34 -100 -34 -109 0 -9 54 -102 120 -208 66 -105 120 -199
120 -207 0 -8 -23 -77 -50 -153 -28 -75 -47 -140 -43 -144 4 -4 43 -20 85 -35
76 -27 77 -28 92 -74 53 -166 77 -254 69 -262 -12 -12 -302 -34 -312 -23 -19
19 -201 371 -201 387 0 9 30 48 66 87 37 39 64 73 61 76 -10 10 -68 -14 -120
-49 -26 -17 -75 -64 -107 -104 -143 -173 -528 -432 -725 -488 -74 -21 -228
-93 -384 -180 -65 -36 -123 -65 -128 -65 -6 0 -41 30 -79 66 -88 84 -217 185
-366 285 -113 76 -138 89 -138 71 0 -11 92 -98 223 -212 105 -91 247 -244 247
-266 0 -8 -14 -21 -32 -30 -25 -13 -78 -18 -237 -25 -113 -4 -223 -8 -243 -8
l-38 -1 0 71 c0 65 -2 73 -29 100 -48 48 -56 40 -69 -62 -6 -50 -16 -97 -23
-105 -6 -8 -25 -14 -42 -14 -24 0 -84 -41 -286 -192 -140 -106 -263 -197 -271
-201 -10 -5 -39 -2 -73 8 -64 18 -67 25 -41 96 9 24 46 132 84 240 l68 197
-29 33 -29 34 -62 -68 -63 -69 -21 24 c-11 12 -42 55 -69 93 -96 139 -107 149
-192 180 -120 43 -121 47 -22 94 86 40 190 114 243 170 26 27 56 41 56 26 0
-3 -23 -42 -51 -86 -67 -108 -68 -109 -30 -109 35 0 92 26 154 71 22 16 47 29
56 29 9 0 62 -52 119 -115 l104 -115 156 0 c86 0 152 4 147 8 -6 5 -62 30
-125 55 -101 41 -125 56 -192 118 -119 108 -122 114 -123 237 -1 69 3 106 10
109 7 2 85 -24 175 -57 163 -61 164 -61 189 -42 13 10 26 22 28 28 2 5 -76 38
-173 74 -97 36 -179 72 -182 79 -3 8 12 65 33 126 l38 111 -63 125 c-34 68
-64 126 -66 128 -2 2 -85 34 -184 72 -201 76 -207 77 -425 60 l-100 -8 -166
-92 -166 -92 -26 -70 c-31 -82 -37 -62 74 -246 l72 -118 -33 -95 c-19 -52 -35
-100 -37 -106 -2 -6 19 -20 47 -30 28 -10 56 -24 61 -30 12 -15 59 -172 59
-201 0 -19 -7 -22 -77 -28 -83 -6 -111 -8 -129 -6 -14 1 -144 252 -144 276 0
10 18 38 41 62 22 25 39 47 36 49 -13 13 -77 -37 -184 -144 -149 -148 -326
-267 -468 -312 -56 -18 -117 -49 -295 -151 l-155 -88 -233 -11 -234 -10 -174
-137 c-96 -75 -174 -139 -174 -142 0 -3 35 -55 78 -116 l77 -109 180 -57 c99
-32 190 -58 202 -58 12 -1 31 11 42 25 26 33 26 43 3 51 -75 26 -86 33 -71 47
17 16 399 163 520 200 116 36 141 34 176 -8 15 -19 57 -90 93 -157 l65 -123
57 3 c64 3 68 -2 83 -81 7 -35 7 -35 -122 -130 -155 -115 -197 -143 -290 -196
-87 -49 -266 -122 -299 -122 -12 0 -141 41 -286 91 l-263 91 -275 -9 -276 -9
-359 -138 -360 -138 -285 -246 -284 -247 -150 -255 -150 -255 -22 -250 -22
-250 75 -175 c112 -259 96 -236 235 -330 68 -45 125 -87 126 -91 2 -5 -5 -9
-15 -10 -29 -1 2 -11 467 -155 239 -74 548 -173 686 -219 142 -48 302 -95 370
-108 l119 -23 1 -75 c0 -73 2 -78 132 -364 l132 -290 176 -113 c96 -62 182
-116 190 -119 19 -7 18 -23 -3 -23 -9 0 -156 38 -326 85 -170 47 -311 84 -313
82 -2 -2 42 -17 98 -34 1559 -464 2003 -598 2198 -663 289 -96 459 -143 615
-170 66 -12 405 -75 753 -141 349 -66 638 -119 644 -117 11 4 -1356 343 -1787
443 -239 56 -937 243 -1088 291 -26 9 -45 20 -41 25 3 5 51 9 107 9 158 0 412
26 637 64 303 52 299 51 400 100 51 25 101 46 111 46 10 0 19 4 21 9 2 6 115
64 251 130 237 115 253 125 355 213 59 50 170 133 247 184 129 85 155 108 321
281 99 103 186 197 192 209 30 57 272 690 272 712 0 15 30 107 67 206 l66 179
-11 66 c-7 36 -23 127 -37 201 -37 197 -34 360 7 360 13 0 67 -96 88 -154 23
-64 81 -369 115 -606 44 -300 123 -966 116 -973 -5 -5 -122 -52 -262 -105
-140 -54 -260 -101 -267 -106 -38 -24 -199 -305 -230 -402 -32 -98 -61 -145
-139 -226 -42 -42 -74 -81 -72 -86 2 -4 47 -63 99 -129 l94 -121 116 -17 c254
-38 819 -133 829 -139 17 -11 49 -92 61 -153 14 -76 12 -181 -4 -338 l-14
-130 185 -322 c115 -201 195 -330 211 -341 15 -10 122 -71 237 -135 l210 -116
372 -55 c204 -31 383 -56 396 -56 14 0 247 47 518 104 l494 104 425 261 425
261 282 288 282 287 200 491 c111 270 201 499 201 510 -1 10 -29 152 -63 314
l-63 295 -152 200 -152 200 -282 135 -283 135 -305 5 -305 5 -3 117 c-1 70 8
229 23 395 l26 278 52 53 c28 29 71 62 95 73 41 20 57 21 118 4 17 -5 42 19
149 144 172 202 185 203 75 2 -38 -70 -70 -130 -70 -134 0 -3 17 -11 38 -19
54 -19 317 -14 556 11 l199 21 204 111 c173 95 207 117 218 143 7 17 74 198
148 401 75 204 138 377 142 386 6 15 -105 167 -182 251 l-25 26 -97 -45 c-230
-107 -397 -150 -739 -188 l-142 -16 -111 40 c-116 43 -129 46 -129 33 0 -5 41
-85 92 -178 l91 -169 -2 -205 c-1 -113 -4 -212 -7 -221 -5 -19 -143 -44 -158
-29 -5 5 2 31 17 63 26 56 77 213 79 245 1 9 -69 140 -156 291 -86 151 -153
278 -149 282 5 5 114 2 243 -5 l235 -13 203 79 c111 44 202 82 202 84 0 6
-152 126 -168 132 -9 3 -40 -23 -80 -68 l-67 -72 -125 -9 c-69 -4 -220 -11
-336 -15 -218 -7 -243 -3 -214 32 12 13 183 71 368 124 l73 21 -27 47 c-15 26
-30 51 -34 55 -4 5 -88 -17 -187 -47 -99 -31 -183 -56 -186 -56 -19 0 0 32 54
95 128 148 195 289 206 433 6 88 -6 126 -55 161 -38 27 -82 37 -82 20 0 -8 -9
-86 -20 -173 l-21 -159 -223 -315 c-122 -174 -229 -320 -238 -326 -12 -7 -92
13 -303 75 -158 46 -294 89 -302 94 -12 9 8 69 112 355 69 189 125 351 125
360 0 9 -19 38 -43 65 l-43 49 -84 -97 c-47 -53 -91 -97 -100 -97 -8 1 -71 78
-140 172 -69 94 -130 177 -137 183 -6 6 -60 29 -120 50 -138 49 -168 64 -155
77 5 5 48 27 95 48 150 66 232 120 371 243 36 33 70 57 76 55 6 -2 -28 -62
-74 -133 -47 -72 -86 -135 -86 -142 0 -21 55 -25 105 -7 42 14 126 61 227 128
l26 17 114 -118 c62 -65 136 -142 164 -170 l51 -53 129 1 c71 1 179 4 239 8
l110 6 -192 74 c-208 80 -214 84 -376 240 -113 109 -109 100 -111 273 -1 82 1
151 5 154 4 2 118 -36 253 -86 l247 -90 55 37 c37 25 51 39 42 44 -7 3 -128
48 -268 99 -140 51 -261 97 -268 104 -10 10 0 44 48 175 l60 163 -94 182 -95
181 -273 99 c-150 54 -277 103 -282 107 -11 10 -50 12 -58 3z m376 -242 c82
-31 151 -62 153 -69 5 -14 -33 -19 -342 -39 l-250 -16 -174 -94 c-96 -52 -180
-94 -187 -94 -15 0 -29 139 -16 152 9 9 635 215 657 217 6 0 77 -25 159 -57z
m116 -287 c11 -13 9 -20 -11 -41 -23 -25 -178 -104 -269 -138 l-46 -17 -107
42 c-62 24 -106 46 -104 53 2 6 57 26 123 44 253 69 389 88 414 57z m-4430
-124 c52 -21 96 -43 98 -49 4 -13 -38 -19 -238 -33 l-165 -11 -112 -64 c-62
-35 -119 -64 -128 -64 -13 0 -15 10 -13 57 l3 56 215 73 c118 40 222 73 230
73 8 0 58 -17 110 -38z m76 -206 c4 -8 0 -23 -7 -32 -17 -20 -186 -103 -211
-103 -25 0 -148 50 -148 61 0 14 30 25 140 52 141 35 140 35 183 36 25 1 40
-4 43 -14z m4238 -207 c11 -15 12 -26 5 -40 -18 -34 -79 -17 -79 22 0 41 50
53 74 18z m-4314 -173 c10 -12 10 -18 0 -30 -7 -8 -18 -15 -25 -15 -19 0 -38
28 -31 45 7 19 40 19 56 0z m-463 -486 l158 -60 125 -154 c69 -85 126 -164
128 -177 1 -13 -8 -96 -22 -186 l-25 -163 -71 -89 c-92 -116 -106 -118 -74
-11 8 29 14 55 12 57 -2 2 -39 -6 -82 -18 -57 -16 -81 -27 -87 -42 -5 -12 -29
-113 -54 -226 -25 -112 -49 -207 -53 -212 -15 -15 -242 -91 -357 -119 -170
-41 -320 -61 -470 -63 -179 -1 -223 16 -199 78 3 8 27 29 52 45 50 32 263 121
290 121 8 0 94 -30 190 -66 l175 -65 58 21 c55 21 109 63 97 76 -4 3 -90 27
-193 53 -102 26 -192 54 -199 62 -14 15 -86 191 -86 210 0 6 23 44 51 85 29
41 50 76 48 78 -2 1 -64 15 -137 29 l-133 26 -124 117 c-127 120 -138 133
-127 150 10 15 256 184 343 236 158 96 536 267 591 268 9 0 88 -27 175 -61z
m4084 -26 l241 -87 187 -219 c102 -120 189 -224 193 -231 10 -18 -69 -494 -86
-521 -23 -35 -197 -240 -207 -243 -15 -6 -10 29 16 113 14 44 25 81 25 83 0 8
-49 -2 -150 -31 l-115 -32 -72 -310 c-39 -171 -75 -316 -80 -324 -5 -7 -65
-34 -133 -58 -377 -134 -749 -203 -1110 -207 -141 -1 -172 2 -215 18 -27 11
-54 23 -59 27 -12 10 12 66 38 91 34 32 181 102 334 158 l142 52 268 -97 268
-97 83 32 c120 46 186 111 129 125 -13 3 -142 34 -287 69 -144 35 -269 70
-276 77 -23 26 -127 297 -119 311 4 7 38 57 76 110 37 53 68 101 68 106 0 5
-30 14 -67 21 -38 6 -131 24 -208 38 l-139 26 -183 175 c-101 96 -182 180
-180 186 4 13 251 182 402 275 244 151 466 259 765 372 113 43 206 78 208 78
1 1 111 -38 243 -86z m-5835 -290 c18 -21 6 -50 -45 -104 l-46 -50 -108 17
c-110 17 -137 30 -137 65 0 64 292 127 336 72z m3274 -153 c19 -19 19 -22 5
-58 -31 -73 -127 -168 -158 -156 -23 8 -21 25 3 31 24 6 25 21 3 53 -9 14 -17
26 -18 28 -1 1 -51 -14 -111 -33 -156 -50 -168 -47 -111 21 18 21 45 56 60 76
32 43 78 55 220 57 75 1 90 -2 107 -19z m795 -282 c38 -30 128 -170 200 -311
l60 -119 87 7 87 6 21 -71 c12 -39 20 -77 18 -85 -4 -17 -321 -248 -458 -333
-189 -118 -514 -262 -591 -262 -31 0 -540 169 -557 185 -14 12 -14 11 117 172
50 62 52 35 4 -62 -26 -52 -44 -97 -41 -101 19 -18 113 -24 243 -14 273 22
271 21 419 105 74 41 138 81 143 88 18 23 205 576 200 589 -3 7 -35 50 -71 95
l-65 82 -54 -29 c-73 -40 -175 -77 -274 -101 -87 -21 -126 -17 -79 8 40 21
266 100 355 124 42 11 96 27 121 34 64 19 84 18 115 -7z m-2105 -253 c10 -12
10 -18 0 -30 -17 -20 -37 -19 -48 3 -19 37 21 60 48 27z m1168 -47 c18 -18 14
-38 -7 -38 -29 0 -51 11 -51 25 0 23 39 32 58 13z m-1214 -113 c-28 -85 -50
-120 -58 -94 -2 8 -7 34 -9 58 -5 40 -2 47 35 87 23 25 45 41 50 36 4 -4 -4
-44 -18 -87z m663 78 c7 -19 -26 -84 -168 -325 l-98 -166 -104 -50 c-101 -48
-106 -49 -218 -54 -97 -4 -131 -11 -219 -41 -97 -33 -125 -38 -384 -62 -153
-14 -282 -28 -287 -30 -4 -3 -19 -40 -33 -83 -15 -42 -30 -82 -34 -89 -4 -6
-52 -28 -107 -48 -80 -29 -113 -47 -173 -97 -65 -53 -76 -59 -86 -46 -6 9 -20
80 -30 158 -15 109 -16 144 -7 153 21 21 178 14 241 -11 30 -12 58 -22 62 -22
4 0 5 29 1 64 -4 43 -2 65 6 70 32 20 487 72 900 103 l234 17 58 36 c136 82
135 82 273 318 97 168 133 222 147 222 11 0 23 -8 26 -17z m4855 -158 c15 -27
23 -54 19 -58 -9 -9 -149 39 -170 59 -15 14 -9 17 69 47 35 13 55 1 82 -48z
m-4252 -95 c0 -66 -4 -121 -10 -125 -5 -3 -33 -9 -61 -12 -48 -6 -52 -5 -46
13 4 10 22 66 42 123 57 171 75 172 75 1z m-3565 51 l160 -18 113 -72 c61 -40
112 -77 112 -82 0 -10 -407 -300 -664 -474 -223 -150 -354 -230 -478 -289 -52
-25 -101 -52 -109 -62 -12 -14 -10 -19 10 -35 34 -28 58 -23 92 15 37 43 123
98 258 166 153 76 332 189 663 416 163 112 304 204 312 204 20 0 91 -131 80
-147 -5 -7 -178 -172 -385 -366 l-376 -353 -181 -64 -182 -64 -15 -45 c-8 -24
-14 -46 -12 -47 4 -4 367 153 394 171 13 9 125 103 248 210 356 308 542 452
571 441 26 -10 36 -58 44 -211 l8 -150 -121 -285 c-84 -199 -129 -296 -152
-320 -18 -19 -46 -55 -62 -80 -68 -100 -422 -388 -638 -517 -211 -126 -222
-131 -377 -162 -284 -58 -489 -78 -623 -61 -97 12 -236 46 -326 79 -57 22
-112 72 -312 287 l-57 61 -25 184 c-14 101 -26 198 -27 214 0 17 48 161 107
321 l107 292 198 209 198 209 308 172 c170 94 318 174 328 178 53 20 555 101
601 97 28 -2 122 -12 210 -22z m7545 -96 c-50 -142 -166 -354 -412 -750 l-75
-120 -226 -103 -226 -103 -663 -60 c-365 -34 -666 -64 -669 -67 -3 -4 -108
-286 -233 -627 l-228 -621 56 -96 c31 -53 56 -99 56 -102 0 -20 -148 27 -156
48 -2 6 -46 303 -99 660 -70 471 -93 652 -85 660 7 7 60 11 143 11 133 0 160
-6 301 -61 18 -7 19 -3 12 88 -5 71 -3 98 6 105 11 9 254 44 508 73 129 15
635 57 905 75 132 9 251 21 265 26 14 6 82 47 152 91 l128 80 252 417 c297
491 312 514 316 486 2 -12 -11 -61 -28 -110z m-6840 -116 c0 -26 -33 -32 -76
-14 -35 14 -36 17 -31 51 3 20 12 43 19 51 11 14 17 10 50 -27 21 -23 38 -51
38 -61z m5838 59 c35 -35 -11 -82 -54 -53 -38 24 -25 65 21 65 12 0 26 -5 33
-12z m-28 -107 c0 -9 -56 -166 -85 -238 -9 -24 -21 -41 -25 -38 -10 6 -20 64
-22 129 -1 48 0 50 58 102 58 53 74 62 74 45z m-5696 -99 c29 -57 58 -186 91
-407 39 -256 50 -223 -116 -360 -82 -68 -145 -113 -150 -108 -5 5 27 109 77
248 l86 240 -26 140 c-27 147 -33 253 -15 286 13 26 24 18 53 -39z m2170 -236
c6 -26 5 -77 -3 -145 -14 -135 -58 -372 -71 -385 -12 -12 -90 13 -98 32 -11
30 68 426 102 505 12 31 20 38 38 35 17 -2 25 -13 32 -42z m498 -89 c86 -54
162 -105 168 -112 9 -10 -34 -44 -202 -159 l-213 -146 -83 0 c-79 0 -83 1 -92
25 -15 40 21 493 40 505 5 3 58 1 117 -5 l108 -10 157 -98z m-1307 -147 l0
-205 -53 -88 c-53 -87 -54 -88 -140 -131 -139 -69 -233 -108 -248 -102 -13 5
-13 10 1 36 8 16 30 46 47 66 33 37 40 69 113 475 9 53 20 101 24 108 8 12
198 51 236 48 19 -2 20 -9 20 -207z m629 142 c6 -10 -80 -433 -91 -443 -12
-11 -181 -44 -189 -37 -4 4 12 84 36 177 l42 170 92 70 c93 72 101 77 110 63z
m1259 -71 c44 -48 70 -98 63 -117 -7 -19 -51 -18 -110 2 -46 16 -48 18 -43 48
7 43 34 106 45 106 5 0 26 -18 45 -39z m-261 -138 c28 -34 98 -162 98 -180 0
-18 -142 -153 -161 -153 -21 0 -270 131 -267 141 3 9 297 208 309 209 3 0 13
-8 21 -17z m-2502 -112 c0 -6 -29 -93 -65 -195 -36 -102 -65 -191 -65 -198 0
-7 15 -40 32 -74 18 -35 29 -66 25 -70 -9 -9 -84 13 -93 27 -9 16 -63 390 -58
404 6 14 183 113 207 114 9 1 17 -3 17 -8z m6006 -161 c2 0 4 -6 4 -14 0 -16
-83 -72 -123 -81 -35 -9 -57 9 -57 46 0 30 19 80 34 91 5 3 39 -4 74 -18 35
-13 66 -24 68 -24z m-6324 -196 c16 -129 17 -159 6 -169 -7 -6 -90 -42 -185
-79 l-172 -68 -39 -62 c-47 -74 -112 -200 -112 -218 0 -30 -52 -121 -94 -166
-26 -27 -46 -53 -46 -57 0 -7 94 -138 119 -167 3 -4 141 -30 306 -57 165 -28
310 -53 323 -56 55 -13 81 -150 63 -334 l-12 -113 121 -222 c67 -121 129 -228
138 -238 9 -9 85 -55 167 -102 l150 -85 235 -36 c308 -47 295 -44 279 -60 -29
-26 -514 -105 -765 -125 -233 -19 -450 11 -717 97 l-142 45 -225 230 c-187
192 -226 237 -232 267 -17 92 -41 302 -35 307 4 4 101 -12 217 -35 116 -23
216 -41 222 -39 6 2 -91 30 -215 62 -125 33 -231 64 -235 70 -5 6 -14 51 -21
99 l-12 88 156 407 c86 224 164 418 172 431 33 51 547 561 556 552 5 -5 18
-80 29 -167z m2078 156 c0 -5 -4 -10 -10 -10 -5 0 -10 5 -10 10 0 6 5 10 10
10 6 0 10 -4 10 -10z m345 -20 c125 -26 229 -64 233 -82 3 -17 -660 -623 -681
-623 -8 0 -11 15 -9 45 5 69 52 473 58 490 6 21 264 190 289 190 11 0 61 -9
110 -20z m-493 -2 c3 -7 3 -30 0 -51 -4 -34 -11 -43 -79 -88 -48 -33 -78 -48
-85 -41 -6 6 -4 32 7 73 28 112 30 114 116 118 22 0 39 -4 41 -11z m1105 -60
c27 -55 46 -238 25 -238 -12 0 -152 195 -152 212 0 18 69 59 95 55 11 -1 26
-14 32 -29z m-1347 -8 c0 -16 -4 -51 -9 -77 -5 -26 -12 -65 -16 -85 -5 -33
-14 -42 -96 -94 -52 -33 -94 -53 -99 -48 -10 10 25 274 38 285 9 9 141 47 165
48 12 1 17 -7 17 -29z m4802 -41 c21 -80 22 -154 4 -300 -17 -133 -84 -489
-96 -508 -6 -11 -21 -9 -75 10 -37 13 -70 30 -72 37 -12 30 102 568 148 699
47 131 48 135 62 131 6 -3 20 -33 29 -69z m-3617 -185 l90 -109 29 -137 29
-138 -172 -387 -172 -388 -202 -172 c-235 -200 -375 -311 -540 -426 -215 -150
-204 -145 -383 -172 -351 -54 -499 -54 -710 0 -149 38 -179 56 -332 202 l-138
131 -21 74 c-34 117 -43 183 -43 317 0 155 4 171 38 171 14 0 139 -33 277 -74
580 -173 717 -208 736 -189 5 5 13 57 17 114 l7 104 65 92 c36 51 70 94 76 97
5 2 91 -27 190 -64 98 -37 182 -66 187 -63 4 2 7 22 7 43 0 45 27 348 35 397
5 27 40 61 238 224 128 106 255 212 282 234 127 106 300 235 309 232 6 -2 52
-53 101 -113z m2443 -64 c2 -96 0 -235 -3 -307 l-7 -133 -73 -118 -74 -118
-123 -59 c-184 -88 -341 -155 -360 -155 -40 0 -18 42 95 185 20 25 35 89 96
415 40 212 77 389 81 394 10 10 325 75 350 72 13 -1 16 -30 18 -176z m-3403
111 c3 -6 -6 -127 -20 -270 -14 -144 -25 -268 -25 -276 0 -44 -159 -131 -186
-103 -14 15 -54 145 -54 177 0 43 83 356 99 373 17 17 161 107 173 108 4 0 9
-4 13 -9z m4325 -60 c0 -32 -121 -605 -130 -614 -4 -5 -67 -21 -140 -37 -111
-24 -132 -26 -137 -13 -5 13 101 441 117 472 8 14 270 211 283 211 4 0 7 -9 7
-19z m-6217 -156 c26 -100 11 -195 -31 -195 -65 0 -258 137 -250 177 2 11 39
28 118 54 63 20 122 36 130 36 10 -2 21 -27 33 -72z m287 36 c41 -16 75 -32
77 -37 5 -16 -112 -199 -127 -199 -30 0 -87 195 -70 240 12 31 26 31 120 -4z
m1315 7 c6 -17 -60 -377 -72 -389 -12 -12 -398 134 -398 152 0 8 89 58 214
121 118 59 219 112 224 117 15 15 27 14 32 -1z m-294 -42 c-30 -36 -258 -156
-295 -156 -37 0 -76 21 -76 40 0 36 23 80 43 85 40 10 272 43 306 44 28 1 31
-1 22 -13z m-781 -60 c0 -19 -54 -165 -80 -216 -11 -22 -25 -40 -30 -40 -25 0
-39 117 -22 177 7 23 96 91 120 92 6 1 12 -5 12 -13z m-794 -80 c49 -19 90
-39 92 -45 9 -26 -33 -63 -111 -101 -100 -48 -142 -58 -150 -36 -12 30 50 216
72 216 5 0 49 -15 97 -34z m1029 -36 c158 -18 162 -22 85 -69 -27 -17 -50 -36
-50 -43 0 -6 10 -22 22 -35 12 -13 18 -26 15 -30 -8 -8 -208 44 -221 57 -11
11 7 95 26 117 13 16 10 16 123 3z m452 -95 c202 -68 204 -69 182 -134 -13
-38 -8 -38 -231 -6 -229 33 -238 35 -238 50 0 15 124 135 140 135 6 0 72 -20
147 -45z m-2177 -31 c0 -4 -28 -52 -61 -108 l-62 -101 -23 -249 c-12 -136 -26
-252 -31 -257 -16 -16 -524 113 -1065 272 -38 11 -68 24 -68 29 0 6 26 10 58
10 102 0 283 20 467 52 l180 31 250 125 c151 75 267 140 294 163 41 37 61 47
61 33z m1329 -53 c27 -37 27 -39 -8 -116 -48 -104 -172 -275 -202 -275 -25 0
-182 64 -186 76 -2 6 39 31 92 55 l96 44 80 123 c44 67 87 122 94 122 8 0 23
-13 34 -29z m590 -90 c300 -41 356 -51 368 -67 21 -28 12 -47 -31 -63 -32 -12
-52 -13 -120 -3 -175 25 -582 138 -607 168 -16 20 -11 20 390 -35z m866 -130
c-4 -44 -13 -85 -19 -90 -14 -11 -208 -51 -218 -45 -15 9 -8 29 30 93 35 60
42 66 117 101 44 21 84 34 88 30 5 -4 5 -44 2 -89z m-901 -23 l288 -70 -5 -35
c-5 -30 -4 -34 11 -28 78 32 103 38 111 30 7 -7 6 -58 -1 -144 -13 -154 -16
-160 -101 -187 l-55 -17 -358 101 c-198 56 -388 109 -424 118 -36 10 -69 21
-74 25 -9 8 118 299 136 310 12 8 93 -10 472 -103z m6020 16 c66 -8 162 -24
214 -35 91 -20 303 -88 348 -112 20 -11 348 -393 379 -441 12 -20 125 -490
125 -523 0 -9 -91 -225 -202 -480 l-202 -465 -329 -317 -328 -316 -408 -213
-407 -212 -230 -35 c-498 -74 -749 -85 -984 -41 -74 14 -193 44 -263 66 l-128
41 -147 131 c-81 72 -177 159 -214 192 -66 59 -68 62 -99 160 -42 137 -58 219
-68 350 -10 132 3 324 22 344 17 17 36 12 637 -159 677 -194 853 -235 889
-211 12 9 28 150 30 278 1 23 27 66 102 168 55 75 104 136 109 136 4 0 125
-43 269 -95 144 -52 267 -95 274 -95 9 0 19 70 36 263 12 144 27 296 32 337 5
41 22 201 39 355 61 559 111 917 132 943 14 17 174 11 372 -14z m-566 -59 c6
-82 -5 -203 -119 -1325 -12 -118 -26 -220 -33 -227 -12 -13 -246 -63 -293 -63
-16 0 -32 3 -36 6 -8 9 25 72 89 172 30 45 54 89 54 96 0 8 -22 87 -50 176
-27 89 -50 171 -50 181 0 25 250 1002 258 1011 9 9 119 26 152 24 23 -1 25 -6
28 -51z m-353 -67 c-12 -72 -163 -889 -179 -961 -7 -38 -18 -73 -24 -79 -10
-10 -836 285 -861 307 -11 11 -11 21 3 63 10 28 23 55 30 61 6 5 160 31 342
57 181 25 333 49 337 53 4 5 24 111 43 237 20 126 39 233 43 237 11 11 210 65
244 66 28 1 29 0 22 -41z m-2458 -528 c12 -41 22 -104 22 -141 1 -78 -23 -159
-47 -159 -23 0 -110 34 -183 70 -66 34 -199 153 -199 180 0 13 39 29 178 73
97 31 184 55 192 54 9 -1 23 -30 37 -77z m419 26 c95 -35 119 -48 118 -62 -1
-23 -170 -284 -183 -284 -10 0 -58 119 -85 209 -26 90 -18 181 18 181 7 0 66
-20 132 -44z m364 -121 c0 -22 -75 -226 -110 -300 -26 -55 -35 -66 -53 -63
-30 4 -43 80 -31 185 l9 78 84 58 c90 61 101 65 101 42z m-1180 -124 c74 -27
139 -56 145 -65 24 -39 -87 -119 -245 -176 -109 -39 -136 -38 -133 8 2 49 82
282 96 282 2 0 63 -22 137 -49z m1605 -67 c222 -24 420 -68 635 -140 107 -36
205 -72 217 -80 21 -13 21 -15 6 -61 -27 -82 -2 -80 -369 -29 -386 54 -509 76
-661 118 -153 42 -150 38 -118 123 36 95 39 97 99 90 28 -3 114 -12 191 -21z
m-666 -239 c47 -52 49 -43 -29 -195 -53 -102 -135 -219 -217 -309 l-49 -54
-139 50 c-77 28 -141 57 -143 64 -2 9 48 36 140 77 l143 63 118 175 c65 96
122 174 126 174 5 0 27 -20 50 -45z m871 -131 c283 -36 521 -71 528 -77 13
-10 52 -80 52 -92 0 -3 -16 -13 -36 -21 -31 -13 -50 -14 -128 -4 -275 35 -760
153 -979 239 -37 14 -25 35 17 27 17 -3 263 -35 546 -72z m-3685 -54 c-3 -5
-11 -10 -16 -10 -6 0 -7 5 -4 10 3 6 11 10 16 10 6 0 7 -4 4 -10z m3132 -44
c588 -129 1093 -254 1100 -274 4 -8 -1 -99 -11 -201 -14 -155 -20 -189 -35
-202 -10 -8 -56 -28 -102 -43 l-84 -29 -260 72 c-143 40 -426 117 -629 172
-203 54 -371 101 -374 104 -5 5 33 90 138 308 46 94 67 127 80 127 11 0 90
-16 177 -34z"/>
<path d="M3788 3873 c7 -3 16 -2 19 1 4 3 -2 6 -13 5 -11 0 -14 -3 -6 -6z"/>
<path d="M11444 8346 c-11 -30 45 -85 266 -261 124 -100 325 -300 482 -483
l148 -172 0 -84 c0 -100 16 -228 35 -272 16 -38 42 -48 98 -40 77 12 76 -4 12
289 l-58 265 -109 116 c-179 190 -366 338 -675 539 -100 64 -184 117 -188 117
-3 0 -8 -6 -11 -14z"/>
<path d="M1378 4523 c7 -3 16 -2 19 1 4 3 -2 6 -13 5 -11 0 -14 -3 -6 -6z"/>
<path d="M3018 3203 c7 -3 16 -2 19 1 4 3 -2 6 -13 5 -11 0 -14 -3 -6 -6z"/>
<path d="M5845 3005 c17 -7 216 -76 443 -152 435 -145 437 -146 430 -88 -4 25
-85 50 -523 161 -405 101 -387 97 -350 79z"/>
<path d="M6260 2790 c-21 -39 -12 -47 108 -90 307 -110 808 -267 819 -257 3 3
-207 87 -765 305 -142 56 -153 59 -162 42z"/>
<path d="M10095 910 c55 -23 1020 -337 1210 -395 66 -20 126 -38 133 -40 12
-4 25 20 38 70 5 22 0 25 -92 55 -132 42 -1166 299 -1304 324 -30 5 -27 3 15
-14z"/>
<path d="M10785 576 c-8 -19 -15 -42 -15 -49 0 -21 575 -215 1005 -341 219
-63 433 -118 446 -114 7 2 -1284 493 -1409 536 -7 2 -19 -11 -27 -32z"/>
</g>
</svg>
