<?xml version="1.0" standalone="no"?>
<!DOCTYPE svg PUBLIC "-//W3C//DTD SVG 20010904//EN"
 "http://www.w3.org/TR/2001/REC-SVG-20010904/DTD/svg10.dtd">
<svg version="1.0" xmlns="http://www.w3.org/2000/svg"
 width="1280.000000pt" height="978.000000pt" viewBox="0 0 1280.000000 978.000000"
 preserveAspectRatio="xMidYMid meet">
<g transform="translate(0.000000,978.000000) scale(0.100000,-0.100000)"
fill="#000000" stroke="none">
<path d="M8120 9689 c-33 -45 -59 -85 -58 -90 2 -4 248 -176 547 -381 300
-205 546 -379 549 -386 4 -12 -84 -57 -638 -323 -161 -78 -207 -96 -216 -86
-6 6 -26 56 -44 110 -23 72 -36 97 -46 93 -8 -3 -52 -17 -99 -31 -47 -15 -85
-32 -85 -38 0 -7 38 -127 85 -267 47 -140 85 -262 85 -272 0 -22 5 -20 -494
-239 l-419 -183 -67 -141 c-36 -77 -140 -301 -231 -497 -126 -276 -168 -358
-182 -358 -10 0 -122 30 -250 66 -128 36 -286 78 -352 94 -296 71 -716 132
-1049 153 l-39 2 -35 98 -35 99 -108 -7 -107 -7 -22 68 c-39 118 -95 236 -225
475 -170 310 -204 399 -221 575 -9 94 9 131 90 191 73 54 155 96 335 172 208
88 263 130 226 171 -19 21 -115 45 -222 55 -75 7 -94 20 -45 31 96 21 272 82
272 94 0 3 -99 6 -220 7 -121 1 -300 7 -398 12 -97 6 -263 11 -368 12 -169 2
-196 0 -230 -17 -50 -24 -69 -59 -60 -107 10 -51 26 -63 105 -78 70 -12 132
-11 591 10 194 9 384 0 419 -19 51 -27 28 -42 -217 -149 -232 -101 -363 -197
-378 -277 -24 -126 61 -381 330 -988 58 -131 103 -242 100 -247 -3 -5 -12 -9
-20 -9 -8 0 -14 -7 -14 -15 0 -8 63 -187 141 -398 78 -210 146 -394 151 -409
8 -23 16 -28 43 -28 40 0 47 -8 80 -95 89 -236 218 -719 279 -1046 58 -308
127 -873 109 -890 -5 -4 -42 -5 -83 -1 l-75 7 -12 145 c-34 396 -114 702 -262
1005 -79 160 -157 287 -234 378 l-40 49 28 86 c40 123 45 240 13 302 -70 137
-213 112 -330 -57 -16 -24 -33 -43 -37 -43 -5 0 -44 18 -87 39 -396 197 -827
94 -1147 -274 -258 -297 -430 -730 -503 -1265 -21 -159 -30 -575 -15 -737 47
-505 179 -923 393 -1243 80 -120 244 -290 342 -355 115 -77 111 -79 -121 -71
-109 3 -288 11 -398 18 -432 24 -1679 -7 -2110 -52 -178 -19 -503 -77 -753
-135 -62 -15 38 -47 143 -46 38 0 180 11 315 25 440 45 512 50 760 49 238 0
701 -31 717 -47 12 -11 -15 -23 -69 -30 -63 -9 -98 -41 -98 -90 0 -25 -6 -39
-22 -50 -21 -15 -22 -16 -2 -16 11 0 43 -22 72 -49 33 -32 63 -52 84 -55 18
-3 258 -7 533 -10 486 -4 600 -10 787 -42 176 -30 249 -59 621 -245 527 -265
667 -353 667 -421 0 -52 -7 -54 -625 -164 -179 -32 -278 -62 -283 -87 -3 -13
13 -25 62 -47 189 -86 707 -240 1061 -316 165 -35 246 -36 760 -6 369 21 535
35 580 49 11 3 124 77 250 163 127 87 240 161 252 164 26 8 173 -16 491 -79
l222 -45 258 0 c143 0 327 3 410 7 134 5 151 8 155 24 5 17 8 17 73 -5 94 -31
94 -46 2 -46 -213 -2 -639 -21 -748 -34 -176 -22 -613 -96 -624 -106 -14 -14
38 -40 112 -55 61 -13 98 -13 308 1 330 21 948 30 1094 15 63 -6 255 -31 425
-55 301 -44 314 -46 435 -94 68 -27 126 -54 128 -60 5 -15 -11 -18 -223 -46
-340 -46 -372 -57 -210 -70 44 -4 159 -13 255 -21 310 -26 702 -49 825 -49 66
-1 194 7 285 17 91 9 281 26 422 37 142 12 272 26 290 32 18 7 87 39 153 72
l120 61 130 0 c72 -1 256 -2 410 -4 294 -4 769 18 753 34 -2 2 -74 22 -160 44
-173 45 -86 37 -1183 106 -652 41 -716 47 -694 70 3 2 48 16 101 29 784 204
1469 762 1853 1509 162 314 268 672 305 1022 6 61 15 143 20 183 6 40 10 113
10 162 0 49 -4 122 -10 162 -5 40 -14 123 -21 183 -89 865 -590 1685 -1319
2160 -663 432 -1463 572 -2219 388 -56 -14 -107 -21 -111 -16 -4 4 -22 54 -39
111 -16 56 -33 107 -36 113 -4 5 -31 24 -61 40 -30 17 -56 35 -59 39 -3 4
-129 376 -280 826 -218 650 -272 821 -262 831 19 19 958 473 979 473 10 0 205
-129 434 -286 229 -157 420 -282 424 -277 23 23 110 149 110 158 -1 5 -323
231 -718 500 -673 461 -1178 808 -1354 932 l-77 54 -61 -82z m1140 -938 c0 -4
-53 -33 -117 -64 -65 -30 -268 -128 -451 -216 -183 -89 -335 -161 -337 -161
-16 0 0 19 28 32 622 306 854 418 864 418 7 0 13 -4 13 -9z m-922 -1130 c54
-163 62 -195 51 -206 -19 -18 -860 -535 -870 -535 -5 0 -9 7 -9 17 0 27 60
405 71 443 9 32 39 55 341 258 183 122 337 221 342 219 5 -2 39 -90 74 -196z
m258 -774 c129 -388 132 -399 118 -432 -20 -49 -17 -108 11 -204 14 -46 22
-87 19 -92 -3 -5 -58 -36 -123 -69 -276 -140 -516 -316 -742 -540 -333 -332
-562 -694 -714 -1133 -125 -360 -171 -661 -162 -1070 10 -468 99 -839 302
-1252 317 -648 845 -1150 1496 -1424 47 -20 85 -40 85 -46 -1 -6 -80 -9 -226
-6 l-225 3 -100 38 c-197 73 -277 122 -410 251 -148 142 -273 210 -620 337
-284 104 -477 146 -762 167 -389 29 -498 57 -903 230 -182 78 -268 106 -515
170 -215 56 -706 223 -712 242 -3 7 20 14 59 17 575 55 565 54 541 71 -17 12
-16 14 7 24 58 25 233 61 295 61 l67 0 -6 267 c-3 148 -7 363 -8 478 l-3 210
46 15 c25 8 64 27 86 42 48 32 113 126 143 206 28 75 35 82 75 75 47 -8 163
14 205 39 44 25 53 40 65 108 9 50 13 55 40 60 l30 5 0 230 0 230 563 905
c310 498 569 911 576 918 11 11 21 11 52 2 81 -24 89 -19 196 134 54 76 98
145 98 152 0 14 -13 28 -55 58 -16 12 -18 19 -9 33 20 33 959 892 973 890 9
-1 61 -141 147 -400z m-2511 -632 c181 -16 486 -58 504 -69 6 -4 11 -13 11
-20 0 -15 -426 -936 -439 -949 -6 -6 -55 -12 -111 -15 l-101 -5 2 -221 2 -221
-123 -265 c-68 -146 -134 -289 -147 -319 -14 -32 -28 -50 -33 -45 -5 5 -16 99
-25 209 -51 656 -148 1170 -331 1753 -30 95 -51 178 -48 184 10 15 615 3 839
-17z m-1343 -22 c40 -38 54 -113 39 -205 -12 -74 -43 -158 -58 -158 -5 0 -27
18 -48 41 -22 23 -77 70 -122 105 -62 49 -80 69 -76 82 13 34 64 102 96 125
69 52 122 55 169 10z m-607 -283 c39 -12 103 -38 143 -57 65 -32 72 -38 72
-65 0 -31 -22 -47 -43 -30 -48 40 -268 124 -283 109 -3 -3 8 -48 25 -99 60
-185 96 -369 107 -559 6 -98 5 -111 -29 -233 -20 -71 -40 -133 -45 -138 -6 -6
-12 78 -15 214 -3 148 -11 252 -22 308 -33 166 -90 341 -150 461 -29 56 -34
57 -135 33 -414 -97 -776 -621 -884 -1279 -20 -126 -39 -286 -33 -291 3 -3 33
20 68 51 213 185 517 227 761 104 72 -36 81 -45 66 -72 -5 -10 -7 -21 -5 -24
3 -2 8 5 12 16 10 33 33 25 106 -35 54 -44 69 -62 69 -83 0 -29 -16 -51 -38
-51 -8 0 -30 -7 -49 -16 l-34 -17 -45 44 c-24 24 -44 49 -44 56 0 7 -7 10 -15
7 -8 -3 -28 4 -44 15 -55 39 -155 80 -223 91 -169 26 -329 -39 -478 -196 -117
-122 -113 -113 -100 -267 29 -341 99 -615 225 -872 174 -356 401 -575 678
-654 37 -11 67 -17 67 -14 0 3 -16 55 -35 114 -91 281 -126 578 -106 905 9
146 39 369 57 427 8 27 29 20 59 -19 30 -39 29 -30 0 -169 -24 -117 -38 -414
-26 -560 19 -222 71 -426 154 -607 46 -101 48 -101 160 -72 145 37 269 114
402 248 241 243 418 638 481 1071 9 66 21 124 25 129 5 5 19 2 33 -7 24 -16
25 -21 20 -84 -10 -117 -54 -313 -105 -466 -246 -739 -763 -1111 -1273 -915
-276 106 -543 418 -695 813 -325 844 -163 1947 363 2480 156 157 305 241 494
275 74 14 229 4 307 -20z m6095 -25 c999 -148 1810 -885 2060 -1870 62 -243
75 -354 75 -635 0 -185 -5 -273 -18 -360 -73 -472 -253 -883 -546 -1247 -100
-125 -309 -328 -434 -422 -910 -683 -2137 -659 -3023 59 -436 354 -766 903
-878 1460 -46 227 -61 572 -36 790 98 842 601 1586 1329 1964 108 56 115 58
128 41 28 -39 16 -51 -103 -114 -606 -319 -1059 -890 -1230 -1555 -28 -107
-85 -408 -79 -415 2 -2 54 24 114 58 131 73 213 111 336 156 437 159 987 163
1457 9 43 -14 80 -29 83 -34 3 -5 -12 -36 -33 -68 -21 -33 -45 -74 -52 -91 -7
-17 -16 -31 -20 -31 -4 0 -48 16 -98 35 -121 46 -236 79 -357 101 -137 24
-403 25 -539 0 -283 -51 -556 -179 -809 -380 l-77 -61 6 -75 c15 -198 57 -409
115 -590 258 -794 906 -1412 1693 -1615 135 -34 374 -80 381 -73 2 2 -35 82
-84 178 -122 244 -178 416 -218 671 -25 162 -25 548 0 709 31 200 106 480 128
480 8 0 159 -99 159 -105 0 -2 -15 -43 -34 -91 -74 -193 -97 -335 -97 -624 -1
-226 13 -334 66 -515 59 -201 159 -395 311 -602 l69 -95 100 7 c511 33 1052
277 1448 654 320 304 566 716 681 1142 30 112 90 428 82 436 -3 3 -40 -15 -83
-40 -127 -73 -221 -117 -248 -117 -14 0 -43 -9 -63 -19 -52 -27 -230 -85 -332
-109 -162 -38 -242 -46 -455 -46 -225 0 -348 13 -545 60 -210 49 -290 84 -249
110 6 3 31 37 55 75 25 38 49 69 53 69 5 0 41 -15 82 -34 149 -69 369 -116
544 -116 109 0 321 25 434 51 251 58 493 178 719 357 95 76 91 61 67 262 -102
822 -598 1537 -1322 1903 -162 82 -284 130 -440 172 -126 35 -411 91 -419 83
-2 -3 17 -43 42 -89 201 -360 288 -703 286 -1124 -1 -197 -18 -356 -58 -535
-28 -124 -71 -270 -81 -270 -3 0 -38 21 -78 48 -39 26 -80 52 -91 58 -18 10
-17 13 9 81 29 74 36 97 67 208 57 209 72 507 36 710 -56 318 -187 599 -408
875 l-27 34 -128 -12 c-70 -7 -182 -23 -247 -37 -130 -27 -150 -24 -144 24 3
23 11 28 71 43 85 21 236 46 347 58 118 12 424 4 550 -15z m-6348 -105 c74
-152 136 -358 144 -475 4 -67 4 -69 -10 -40 -8 17 -30 68 -48 115 l-33 85 -75
-1 c-193 -4 -424 -154 -577 -376 -98 -141 -188 -351 -228 -531 -17 -78 -17
-78 -75 -117 -33 -22 -62 -44 -65 -50 -3 -5 -13 -10 -21 -10 -19 0 -18 50 5
185 38 220 93 396 182 584 166 350 401 579 666 652 93 25 114 22 135 -21z
m351 -33 c44 -22 81 -46 84 -54 9 -22 -59 -253 -74 -253 -25 0 -91 39 -96 57
-3 10 -11 43 -17 73 -6 30 -23 92 -36 138 -14 45 -22 87 -19 91 8 14 72 -7
158 -52z m248 -32 c70 -59 149 -152 149 -174 0 -9 -6 -26 -14 -36 -12 -17 -22
-10 -130 101 -64 65 -116 120 -116 121 0 1 4 13 10 28 12 31 22 27 101 -40z
m5273 19 c80 -80 217 -303 281 -457 55 -135 40 -138 -45 -8 l-75 114 -150 -7
c-82 -3 -194 -14 -248 -24 -80 -15 -99 -16 -108 -5 -18 20 -110 317 -101 325
12 12 191 48 307 63 60 7 113 13 117 14 4 1 14 -6 22 -15z m655 -41 c803 -192
1470 -837 1706 -1648 51 -178 103 -499 86 -532 -20 -39 -282 -218 -306 -209
-12 4 -15 28 -15 135 0 742 -447 1467 -1115 1810 -101 52 -276 123 -334 136
-31 7 -33 5 -26 -11 27 -64 76 -248 96 -359 39 -223 29 -600 -22 -787 -19 -71
-22 -32 -8 104 47 456 -19 901 -188 1258 -29 63 -51 120 -49 127 6 15 23 12
175 -24z m-5939 -123 c130 -131 128 -125 79 -259 -23 -61 -45 -111 -50 -111
-15 0 -209 203 -209 219 0 24 52 215 63 229 5 6 14 12 19 12 5 0 49 -41 98
-90z m4506 -172 c68 -203 75 -176 -63 -248 -423 -221 -736 -543 -928 -953 -42
-90 -115 -295 -115 -324 0 -7 -28 -26 -62 -40 -35 -15 -96 -44 -136 -65 -40
-21 -78 -38 -84 -38 -17 0 -3 98 32 234 170 655 611 1213 1205 1525 44 23 86
40 94 39 9 -2 31 -53 57 -130z m-4246 21 c205 -320 323 -739 337 -1191 5 -173
4 -198 -9 -198 -26 0 -128 51 -128 64 0 7 14 31 31 55 l32 43 -7 123 c-19 369
-140 777 -311 1051 -41 65 -44 74 -34 103 6 17 17 31 24 31 7 0 37 -37 65 -81z
m-66 -98 c156 -256 268 -620 297 -963 l12 -138 -44 -56 c-40 -53 -45 -56 -78
-50 -44 7 -51 18 -51 88 0 139 -49 414 -102 573 -29 88 -104 253 -150 328
l-23 39 34 96 c49 140 50 142 60 142 5 0 26 -27 45 -59z m1442 -255 c6 -16
-42 -116 -56 -116 -15 0 -13 117 3 123 24 10 48 7 53 -7z m-1905 -92 c0 -42
-3 -79 -6 -82 -3 -3 -5 34 -5 83 0 49 3 86 6 82 3 -3 6 -40 5 -83z m-41 -116
c0 -101 -46 -394 -63 -405 -6 -3 -23 8 -38 25 -25 27 -27 35 -18 64 5 18 25
92 45 163 40 149 53 185 65 185 5 0 9 -15 9 -32z m36 -66 c-13 -12 -17 8 -9
44 l8 39 3 -39 c2 -21 1 -41 -2 -44z m-9 -64 c-3 -8 -6 -5 -6 6 -1 11 2 17 5
13 3 -3 4 -12 1 -19z m-114 -288 l26 -30 -25 -92 c-14 -51 -33 -99 -42 -105
-18 -15 -68 -17 -76 -5 -3 5 6 49 20 98 13 49 29 106 35 127 12 45 29 47 62 7z
m-813 -134 c0 -3 -27 -21 -60 -41 -33 -20 -85 -60 -116 -88 l-57 -52 6 -130
c26 -525 240 -993 550 -1198 29 -20 66 -41 80 -48 15 -7 28 -19 31 -28 50
-199 69 -281 64 -286 -10 -10 -117 32 -197 77 -100 57 -275 229 -355 352 -121
184 -226 441 -280 686 -31 139 -56 328 -56 415 0 64 1 66 53 127 67 79 150
147 230 187 54 27 107 40 107 27z m2200 -163 c14 -17 18 -54 24 -189 4 -108 3
-171 -3 -177 -11 -11 -180 98 -182 117 -5 55 5 254 14 265 18 22 126 10 147
-16z m-1606 -151 c26 -15 48 -31 48 -35 -2 -27 -68 -167 -79 -167 -18 0 -74
80 -69 99 3 9 12 42 21 74 9 31 19 57 23 56 4 0 29 -13 56 -27z m278 -9 c10
-9 18 -24 18 -34 0 -12 5 -16 14 -13 8 3 49 -11 91 -32 63 -31 89 -38 154 -42
100 -6 197 11 277 49 l63 29 66 -24 c37 -13 69 -27 72 -30 11 -11 -19 -36 -43
-36 -13 0 -52 -15 -86 -34 -191 -104 -415 -109 -600 -15 -40 20 -45 35 -27 72
7 15 2 12 -14 -8 l-25 -30 -54 38 c-65 44 -104 84 -94 94 7 8 108 28 150 32
11 0 28 -6 38 -16z m5991 -119 c47 -24 124 -82 130 -98 7 -18 -76 -210 -137
-315 -57 -99 -72 -75 122 -193 72 -45 132 -86 132 -93 0 -15 -56 -104 -88
-137 -14 -16 -32 -28 -40 -28 -22 0 -184 76 -280 132 -84 49 -102 55 -102 39
0 -5 -18 -30 -39 -56 -21 -26 -61 -85 -87 -131 -27 -46 -55 -84 -62 -84 -16 0
-54 23 -109 68 -28 22 -43 41 -43 56 0 23 133 300 164 341 14 20 15 19 53 -16
49 -47 73 -59 120 -59 41 1 52 6 131 64 58 42 84 83 84 130 0 17 -19 79 -42
138 l-41 107 32 63 c49 98 50 98 102 72z m-5171 -70 c-6 -144 -71 -406 -148
-597 -162 -403 -432 -688 -720 -761 -107 -27 -106 -28 -152 72 -49 106 -85
219 -112 351 -32 157 -24 226 14 119 10 -29 33 -86 52 -127 l34 -74 63 6 c143
13 301 94 436 223 185 176 288 365 386 714 14 49 22 60 73 97 31 23 62 40 67
39 6 -2 9 -29 7 -62z m4607 -61 c17 -15 141 -299 141 -325 0 -17 -28 -6 -110
43 -46 28 -106 62 -132 75 -54 28 -59 44 -29 102 30 58 80 122 95 122 8 0 23
-8 35 -17z m-4102 -169 c18 -14 41 -42 51 -62 14 -30 23 -37 47 -38 34 0 75
-20 75 -35 0 -5 -12 -32 -26 -60 -50 -100 -151 -184 -212 -177 l-27 3 -3 185
c-1 101 0 190 2 197 9 21 57 15 93 -13z m2663 -3 c0 -5 -30 -26 -67 -47 -38
-20 -96 -57 -130 -81 l-63 -44 0 -67 c0 -171 44 -424 109 -623 145 -444 443
-832 841 -1096 152 -101 272 -158 474 -227 l119 -41 42 -100 c23 -55 51 -119
63 -142 33 -63 30 -75 -15 -67 -86 14 -253 58 -347 91 -757 263 -1343 917
-1529 1708 -30 127 -57 302 -57 368 0 43 3 48 53 90 89 76 215 156 341 217 66
32 130 60 141 63 11 3 21 5 23 6 1 0 2 -3 2 -8z m-2850 -188 c0 -104 -3 -153
-11 -153 -21 0 -69 42 -69 60 0 16 41 201 57 254 13 47 23 -19 23 -161z m-40
-170 c22 -16 42 -37 44 -48 3 -11 7 -207 10 -436 5 -327 3 -419 -7 -427 -6 -6
-118 -39 -247 -73 l-235 -63 -199 -3 c-143 -3 -202 -1 -210 8 -8 8 -8 13 0 16
28 10 166 108 234 166 193 164 405 485 503 762 40 112 46 125 57 125 5 0 28
-12 50 -27z m6955 -192 c3 -6 -4 -54 -15 -108 -165 -794 -717 -1454 -1460
-1746 -182 -72 -363 -117 -570 -142 l-115 -15 -39 43 c-95 104 -222 326 -289
508 -60 160 -61 237 -2 127 38 -70 99 -162 148 -220 l39 -48 63 0 c94 0 283
27 420 60 408 98 762 294 1051 584 228 229 380 469 475 750 l33 98 121 58
c133 64 131 64 140 51z m-7850 -1007 c69 -26 114 -54 86 -54 -17 0 -233 50
-243 56 -5 3 -6 10 -3 15 11 17 90 9 160 -17z m5093 -1766 c30 -15 32 -31 4
-36 -21 -3 -132 42 -132 54 0 10 97 -3 128 -18z"/>
</g>
</svg>
